#!OML:ASF F:\VICON\USERDATA\INSTALL\rory3\rory3.ASF
:FULLY-SPECIFIED
:DEGREES
2913
root -3.5235 17.1589 -25.8767 -1.83731 -55.7611 -702.808
lowerback 44.5402 -1.93145 -2.56472
upperback 9.40557 -3.34965 7.12569
thorax -9.85569 -1.98035 10.7056
lowerneck -9.53125 -5.69301 -1.94832
upperneck 7.7909 -7.75649 4.07661
head 4.11943 -3.65433 1.06062
rclavicle 4.6118e-014 2.78299e-014
rhumerus -31.0743 -26.8346 -59.3674
rradius 141.904
rwrist -14.8676
rhand -13.8515 -2.19473
rfingers 7.12502
rthumb 12.2723 -31.8146
lclavicle 4.6118e-014 2.78299e-014
lhumerus -37.8139 -7.56275 77.4621
lradius 49.2151
lwrist 8.60969
lhand 161.055 -128.617
lfingers 7.12502
lthumb -172.642 2781.23
rfemur -56.0803 -13.2169 30.6778
rtibia 45.6365
rfoot -10.2728 -37.0106
rtoes 35.235
lfemur -16.8126 9.02038 -28.168
ltibia 58.0474
lfoot -1.56574 -15.1155
ltoes 21.8645
2914
root -3.4407 17.1362 -25.9258 -2.24591 -55.7179 -703.096
lowerback 44.635 -1.80025 -2.95588
upperback 9.32324 -3.31625 7.48812
thorax -9.96707 -1.96349 11.3275
lowerneck -8.95017 -5.76321 -2.43039
upperneck 7.44526 -7.74665 3.64973
head 4.34558 -3.70536 1.1421
rclavicle 4.77083e-015 -3.33958e-014
rhumerus -29.3383 -25.3065 -59.4185
rradius 142.722
rwrist -10.6376
rhand -13.4865 -2.10451
rfingers 7.12502
rthumb 12.6242 -31.703
lclavicle 4.77083e-015 -3.33958e-014
lhumerus -38.3681 -5.23942 78.5598
lradius 48.9157
lwrist 6.508
lhand 160.385 -129.307
lfingers 7.12502
lthumb -173.288 2780.57
rfemur -55.4308 -13.0262 30.5539
rtibia 45.3044
rfoot -10.5922 -37.3356
rtoes 35.6704
lfemur -16.267 9.359 -28.4916
ltibia 57.9201
lfoot -1.34756 -16.0682
ltoes 23.9661
2915
root -3.35859 17.1056 -25.9638 -2.88725 -55.7717 -703.151
lowerback 44.3467 -1.74423 -2.85094
upperback 9.48177 -3.24522 7.3184
thorax -9.7223 -1.95038 11.0202
lowerneck -9.2447 -6.39221 -2.53765
upperneck 8.47042 -8.67152 4.32218
head 4.34455 -4.09953 1.15975
rclavicle 1.90833e-014 -6.59965e-014
rhumerus -27.7142 -24.6309 -60.0448
rradius 143.413
rwrist -6.6012
rhand -12.9002 -1.71945
rfingers 7.12502
rthumb 13.1894 -31.2822
lclavicle 1.90833e-014 -6.59965e-014
lhumerus -38.3448 -5.88134 78.7943
lradius 48.9969
lwrist 6.70068
lhand 161.004 -129.599
lfingers 7.12502
lthumb -172.691 2780.26
rfemur -54.7792 -13.0083 30.409
rtibia 44.9426
rfoot -10.5682 -37.3194
rtoes 35.9821
lfemur -15.6649 9.7063 -29.0099
ltibia 57.7519
lfoot -1.54463 -17.1715
ltoes 24.3699
2916
root -3.26143 17.07 -26.0444 -2.94267 -55.4108 -703.393
lowerback 44.227 -1.34364 -3.51868
upperback 9.29132 -2.94024 7.98118
thorax -9.94495 -1.79182 12.0214
lowerneck -9.28626 -7.02932 -3.10162
upperneck 9.0747 -9.46692 4.22628
head 4.58586 -4.50174 1.1468
rclavicle 3.18055e-014 -4.6118e-014
rhumerus -25.8823 -23.3661 -59.469
rradius 143.743
rwrist -3.11964
rhand -12.2019 -1.58444
rfingers 7.12502
rthumb 13.8624 -31.1025
lclavicle 3.18055e-014 -4.6118e-014
lhumerus -38.5855 -7.06954 79.6204
lradius 49.3447
lwrist 7.8638
lhand 159.97 -128.312
lfingers 7.12502
lthumb -173.69 2781.57
rfemur -54.7456 -13.1068 30.5601
rtibia 44.6477
rfoot -10.1142 -37.5194
rtoes 35.4636
lfemur -15.8322 9.75232 -29.2999
ltibia 57.8094
lfoot -1.71193 -17.0264
ltoes 22.5729
2917
root -3.16586 17.041 -26.1001 -3.1672 -55.2705 -703.478
lowerback 43.6154 -1.58786 -3.36117
upperback 9.34456 -3.20346 7.66004
thorax -9.65882 -1.91875 11.6471
lowerneck -8.94525 -7.2713 -2.89379
upperneck 8.96367 -9.85793 4.56798
head 4.51759 -4.67299 1.20295
rclavicle -4.45278e-014 1.19271e-014
rhumerus -23.8458 -21.9084 -60.5726
rradius 143.852
rwrist 0.720614
rhand -11.6355 -1.46548
rfingers 7.12502
rthumb 14.4082 -30.9454
lclavicle -4.45278e-014 1.19271e-014
lhumerus -38.4163 -5.26029 79.7943
lradius 48.814
lwrist 5.92677
lhand 162.627 -129.221
lfingers 7.12502
lthumb -171.125 2780.57
rfemur -54.6092 -13.0197 30.4691
rtibia 44.3579
rfoot -9.70858 -37.6623
rtoes 35.1935
lfemur -15.818 9.64658 -29.879
ltibia 57.7088
lfoot -2.00351 -16.3561
ltoes 22.0161
2918
root -3.04522 16.9865 -26.2294 -3.0003 -54.2698 -703.681
lowerback 43.376 -2.06754 -3.20529
upperback 9.06983 -3.71183 7.2843
thorax -9.81145 -2.10896 11.3585
lowerneck -8.47246 -7.48004 -2.31013
upperneck 8.90816 -10.2631 5.00712
head 4.43236 -4.83605 1.23469
rclavicle -1.90833e-014 4.21423e-014
rhumerus -21.8908 -20.5487 -62.2018
rradius 143.634
rwrist 4.11796
rhand -10.9551 -1.14398
rfingers 7.12502
rthumb 15.0637 -30.5759
lclavicle -1.90833e-014 4.21423e-014
lhumerus -38.64 -7.55132 78.9005
lradius 49.3632
lwrist 8.11608
lhand 156.605 -127.486
lfingers 7.12502
lthumb -176.939 2782.47
rfemur -54.934 -13.0158 30.3505
rtibia 44.1055
rfoot -10.4841 -38.0984
rtoes 37.0645
lfemur -16.3717 9.80791 -29.9508
ltibia 57.7985
lfoot -1.59343 -16.9685
ltoes 21.0317
2919
root -2.96198 16.9587 -26.2425 -3.54447 -54.5436 -704.051
lowerback 43.0586 -2.52495 -2.28271
upperback 9.27731 -4.0046 6.45845
thorax -9.48556 -2.26409 10.0188
lowerneck -8.4469 -7.60237 -1.22037
upperneck 9.0609 -10.5688 4.99189
head 4.42934 -4.94776 1.0402
rclavicle -4.77083e-015 -1.19271e-014
rhumerus -19.8494 -19.1041 -63.694
rradius 143.172
rwrist 7.02406
rhand -10.604 -1.36189
rfingers 7.12502
rthumb 15.4019 -30.7681
lclavicle -4.77083e-015 -1.19271e-014
lhumerus -38.6351 -5.21864 78.8507
lradius 49.1549
lwrist 5.33461
lhand 159.823 -128.203
lfingers 7.12502
lthumb -173.831 2781.69
rfemur -54.1049 -13.162 30.4046
rtibia 43.7897
rfoot -9.68946 -37.5506
rtoes 36.5743
lfemur -15.5663 10.1101 -30.3832
ltibia 57.5535
lfoot -2.28665 -16.3435
ltoes 18.4129
2920
root -2.86446 16.9247 -26.2769 -3.65353 -54.5514 -704.702
lowerback 42.8427 -2.2012 -2.1353
upperback 9.34405 -3.50982 6.90373
thorax -9.42551 -2.05697 10.2195
lowerneck -7.70889 -7.7021 -1.04041
upperneck 8.26618 -10.6086 4.2552
head 4.44221 -5.03736 0.931902
rclavicle 2.38542e-014 -5.24792e-014
rhumerus -17.6932 -17.8314 -62.9987
rradius 142.449
rwrist 9.33969
rhand -10.4242 -2.03283
rfingers 7.12502
rthumb 15.5751 -31.4257
lclavicle 2.38542e-014 -5.24792e-014
lhumerus -38.2639 -8.17961 79.452
lradius 49.6553
lwrist 7.91428
lhand 161.271 -128.341
lfingers 7.12502
lthumb -172.433 2781.5
rfemur -53.5732 -13.3368 30.668
rtibia 43.5329
rfoot -9.3103 -37.2421
rtoes 35.911
lfemur -15.1469 10.1312 -30.5981
ltibia 57.3494
lfoot -2.45696 -15.592
ltoes 18.4933
2921
root -2.75009 16.8771 -26.3631 -3.48535 -54.0545 -705.367
lowerback 42.6985 -2.41224 -2.01411
upperback 9.23064 -3.68376 7.04331
thorax -9.48337 -2.1304 10.3877
lowerneck -7.80464 -8.44197 -2.0574
upperneck 9.35483 -11.6725 5.51843
head 4.52865 -5.48902 1.26419
rclavicle 4.45278e-014 -5.32743e-014
rhumerus -15.0803 -16.2666 -63.2378
rradius 141.263
rwrist 11.4301
rhand -9.20772 -1.71046
rfingers 7.12502
rthumb 16.7465 -31.0082
lclavicle 4.45278e-014 -5.32743e-014
lhumerus -38.3367 -6.03736 80.0826
lradius 49.5928
lwrist 6.17659
lhand 163.807 -128.874
lfingers 7.12502
lthumb -169.986 2780.87
rfemur -53.4086 -13.2209 30.7881
rtibia 43.2728
rfoot -9.90297 -37.5925
rtoes 36.8611
lfemur -15.1576 10.0455 -30.575
ltibia 57.0873
lfoot -1.89455 -15.3211
ltoes 19.5936
2922
root -2.6474 16.8339 -26.3921 -3.85667 -54.1409 -705.279
lowerback 41.9152 -2.27679 -2.24447
upperback 9.2796 -3.59745 7.26383
thorax -9.19349 -2.10384 10.6828
lowerneck -7.84521 -9.03005 -2.93044
upperneck 9.91155 -12.4407 5.89857
head 4.81488 -5.85648 1.43375
rclavicle 8.5875e-014 -1.07344e-013
rhumerus -12.4 -14.9449 -62.8209
rradius 139.905
rwrist 13.1657
rhand -7.52942 -1.48228
rfingers 7.12502
rthumb 18.3616 -30.6357
lclavicle 8.5875e-014 -1.07344e-013
lhumerus -38.0793 -7.36408 80.7746
lradius 49.8412
lwrist 7.79744
lhand 160.85 -128.199
lfingers 7.12502
lthumb -172.84 2781.66
rfemur -53.3238 -13.017 30.4931
rtibia 43.0503
rfoot -10.3814 -37.4618
rtoes 38.5159
lfemur -15.0734 10.0706 -31.3511
ltibia 56.7329
lfoot -1.94823 -14.5212
ltoes 19.6279
2923
root -2.5325 16.7858 -26.471 -4.79388 -54.0338 -704.699
lowerback 41.731 -1.82662 -3.29219
upperback 9.31125 -3.43463 7.67354
thorax -9.08731 -2.03587 11.6379
lowerneck -7.66417 -9.18829 -3.19934
upperneck 9.82476 -12.5815 5.5703
head 4.75889 -5.95922 1.37567
rclavicle 2.06736e-014 -4.85035e-014
rhumerus -9.48693 -13.3302 -62.3886
rradius 138.284
rwrist 15.1093
rhand -6.60585 -2.06501
rfingers 7.12502
rthumb 19.2499 -31.1323
lclavicle 2.06736e-014 -4.85035e-014
lhumerus -37.7361 -7.17783 81.5643
lradius 49.9972
lwrist 7.97113
lhand 162.967 -129.376
lfingers 7.12502
lthumb -170.797 2780.4
rfemur -53.1549 -12.878 29.9225
rtibia 42.8618
rfoot -10.6433 -37.3142
rtoes 39.7708
lfemur -14.9315 10.252 -32.1749
ltibia 56.4085
lfoot -1.73718 -14.1143
ltoes 20.1786
